<mxfile host="app.diagrams.net" agent="Mozilla/5.0 (Windows NT 10.0; Win64; x64) AppleWebKit/537.36 (KHTML, like Gecko) Chrome/136.0.0.0 Safari/537.36" version="27.0.3">
  <diagram name="Page-1" id="mEo5U-aIOpApGTM14jqk">
    <mxGraphModel dx="2864" dy="1061" grid="1" gridSize="10" guides="1" tooltips="1" connect="1" arrows="1" fold="1" page="1" pageScale="1" pageWidth="827" pageHeight="1169" math="0" shadow="0">
      <root>
        <mxCell id="0" />
        <mxCell id="1" parent="0" />
        <mxCell id="zHjCzondexdLDDkKaduJ-95" value="" style="rounded=0;whiteSpace=wrap;html=1;" vertex="1" parent="1">
          <mxGeometry x="-400" y="160" width="630" height="850" as="geometry" />
        </mxCell>
        <mxCell id="zHjCzondexdLDDkKaduJ-96" value="Socials Facebook" style="shape=folder;fontStyle=1;tabWidth=210;tabHeight=30;tabPosition=left;html=1;boundedLbl=1;labelInHeader=1;container=0;collapsible=0;whiteSpace=wrap;fontSize=19;" vertex="1" parent="1">
          <mxGeometry x="-380" y="170" width="590" height="710" as="geometry" />
        </mxCell>
        <mxCell id="zHjCzondexdLDDkKaduJ-97" value="Marketing Responsible" style="shape=umlActor;verticalLabelPosition=bottom;verticalAlign=top;html=1;outlineConnect=0;" vertex="1" parent="1">
          <mxGeometry x="-470" y="452.88" width="52.5" height="105" as="geometry" />
        </mxCell>
        <mxCell id="zHjCzondexdLDDkKaduJ-98" value="Export csv file" style="html=1;overflow=block;blockSpacing=1;whiteSpace=wrap;ellipse;fontSize=13;spacing=3.8;strokeOpacity=0;fillOpacity=100;rounded=1;absoluteArcSize=1;arcSize=9;fillColor=#979ea8;strokeWidth=1.5;lucidId=2WIeNPYyiRF.;" vertex="1" parent="1">
          <mxGeometry x="-140.00000000000003" y="685.7120171776213" width="100" height="70" as="geometry" />
        </mxCell>
        <mxCell id="zHjCzondexdLDDkKaduJ-99" value="Export XLSX file" style="html=1;overflow=block;blockSpacing=1;whiteSpace=wrap;ellipse;fontSize=13;spacing=3.8;strokeOpacity=0;fillOpacity=100;rounded=1;absoluteArcSize=1;arcSize=9;fillColor=#979ea8;strokeWidth=1.5;lucidId=oXIemN2lJ.WZ;" vertex="1" parent="1">
          <mxGeometry x="-120" y="765.7115137778839" width="100" height="70" as="geometry" />
        </mxCell>
        <mxCell id="zHjCzondexdLDDkKaduJ-107" value="Import Posts" style="html=1;overflow=block;blockSpacing=1;whiteSpace=wrap;ellipse;fontSize=13;spacing=3.8;strokeOpacity=0;fillOpacity=100;rounded=1;absoluteArcSize=1;arcSize=9;fillColor=#979ea8;strokeWidth=1.5;lucidId=~yIeRCyaMfPm;" vertex="1" parent="1">
          <mxGeometry x="-320" y="641.9956435643564" width="120" height="90" as="geometry" />
        </mxCell>
        <mxCell id="zHjCzondexdLDDkKaduJ-108" value="Modify Post" style="html=1;overflow=block;blockSpacing=1;whiteSpace=wrap;ellipse;fontSize=13;spacing=3.8;strokeOpacity=0;fillOpacity=100;rounded=1;absoluteArcSize=1;arcSize=9;fillColor=#fe7070;strokeWidth=1.5;lucidId=1yIeQ48BPR4-;" vertex="1" parent="1">
          <mxGeometry x="-320" y="328.00188118811883" width="120" height="90" as="geometry" />
        </mxCell>
        <mxCell id="zHjCzondexdLDDkKaduJ-109" value="Create Post" style="html=1;overflow=block;blockSpacing=1;whiteSpace=wrap;ellipse;fontSize=13;spacing=3.8;strokeOpacity=0;fillOpacity=100;rounded=1;absoluteArcSize=1;arcSize=9;fillColor=#fe7070;strokeWidth=1.5;lucidId=~xIeha3OeAVz;" vertex="1" parent="1">
          <mxGeometry x="-320" y="219.99871287128713" width="120" height="90" as="geometry" />
        </mxCell>
        <mxCell id="zHjCzondexdLDDkKaduJ-110" value="Export Posts" style="html=1;overflow=block;blockSpacing=1;whiteSpace=wrap;ellipse;fontSize=13;spacing=3.8;strokeOpacity=0;fillOpacity=100;rounded=1;absoluteArcSize=1;arcSize=9;fillColor=#979ea8;strokeWidth=1.5;lucidId=1VIeGqV82j3G;" vertex="1" parent="1">
          <mxGeometry x="-320" y="755.7130693069307" width="120" height="90" as="geometry" />
        </mxCell>
        <mxCell id="zHjCzondexdLDDkKaduJ-111" value="" style="html=1;jettySize=18;whiteSpace=wrap;fontSize=13;strokeColor=#3a414a;strokeOpacity=100;strokeWidth=0.8;rounded=0;startArrow=none;endArrow=block;endFill=0;endSize=12;exitX=0.122;exitY=0.173;exitPerimeter=0;entryX=0.97;entryY=0.672;entryPerimeter=0;lucidId=KYIeURdQv7Vc;" edge="1" parent="1" source="zHjCzondexdLDDkKaduJ-99" target="zHjCzondexdLDDkKaduJ-110">
          <mxGeometry width="100" height="100" relative="1" as="geometry">
            <Array as="points" />
          </mxGeometry>
        </mxCell>
        <mxCell id="zHjCzondexdLDDkKaduJ-112" value="" style="html=1;jettySize=18;whiteSpace=wrap;fontSize=13;strokeColor=#3a414a;strokeOpacity=100;strokeWidth=0.8;rounded=0;startArrow=none;endArrow=block;endFill=0;endSize=12;exitX=0.001;exitY=0.465;exitPerimeter=0;entryX=0.999;entryY=0.535;entryPerimeter=0;lucidId=GYIe1NvaI2Ca;" edge="1" parent="1" source="zHjCzondexdLDDkKaduJ-98" target="zHjCzondexdLDDkKaduJ-110">
          <mxGeometry width="100" height="100" relative="1" as="geometry">
            <Array as="points" />
          </mxGeometry>
        </mxCell>
        <mxCell id="zHjCzondexdLDDkKaduJ-113" value="Consult Post" style="html=1;overflow=block;blockSpacing=1;whiteSpace=wrap;ellipse;fontSize=13;spacing=3.8;strokeOpacity=0;fillOpacity=100;rounded=1;absoluteArcSize=1;arcSize=9;fillColor=#fe7070;strokeWidth=1.5;lucidId=1yIeQ48BPR4-;" vertex="1" parent="1">
          <mxGeometry x="-320" y="435.3534653465346" width="120" height="90" as="geometry" />
        </mxCell>
        <mxCell id="zHjCzondexdLDDkKaduJ-114" style="edgeStyle=orthogonalEdgeStyle;rounded=0;orthogonalLoop=1;jettySize=auto;html=1;exitX=0.5;exitY=0.5;exitDx=0;exitDy=0;exitPerimeter=0;entryX=-0.002;entryY=0.471;entryDx=0;entryDy=0;entryPerimeter=0;endArrow=none;startFill=0;" edge="1" parent="1" source="zHjCzondexdLDDkKaduJ-97" target="zHjCzondexdLDDkKaduJ-96">
          <mxGeometry relative="1" as="geometry" />
        </mxCell>
        <mxCell id="zHjCzondexdLDDkKaduJ-115" value="Employee" style="shape=umlActor;verticalLabelPosition=bottom;verticalAlign=top;html=1;outlineConnect=0;" vertex="1" parent="1">
          <mxGeometry x="-470" y="595.71" width="52.5" height="105" as="geometry" />
        </mxCell>
        <mxCell id="zHjCzondexdLDDkKaduJ-116" style="edgeStyle=orthogonalEdgeStyle;rounded=0;orthogonalLoop=1;jettySize=auto;html=1;exitX=0.5;exitY=0.5;exitDx=0;exitDy=0;exitPerimeter=0;entryX=-0.002;entryY=0.672;entryDx=0;entryDy=0;entryPerimeter=0;endArrow=none;startFill=0;" edge="1" parent="1" source="zHjCzondexdLDDkKaduJ-115" target="zHjCzondexdLDDkKaduJ-96">
          <mxGeometry relative="1" as="geometry" />
        </mxCell>
        <mxCell id="zHjCzondexdLDDkKaduJ-117" value="Filter Posts" style="html=1;overflow=block;blockSpacing=1;whiteSpace=wrap;ellipse;fontSize=13;spacing=3.8;strokeOpacity=0;fillOpacity=100;rounded=1;absoluteArcSize=1;arcSize=9;fillColor=#fe7070;strokeWidth=1.5;lucidId=1yIeQ48BPR4-;" vertex="1" parent="1">
          <mxGeometry x="-320" y="540.0034653465347" width="120" height="90" as="geometry" />
        </mxCell>
        <mxCell id="zHjCzondexdLDDkKaduJ-118" style="rounded=0;orthogonalLoop=1;jettySize=auto;html=1;exitX=0;exitY=0.5;exitDx=0;exitDy=0;dashed=1;" edge="1" parent="1" source="zHjCzondexdLDDkKaduJ-120" target="zHjCzondexdLDDkKaduJ-113">
          <mxGeometry relative="1" as="geometry" />
        </mxCell>
        <mxCell id="zHjCzondexdLDDkKaduJ-119" value="&amp;lt;&amp;lt;Extend&amp;gt;&amp;gt;" style="edgeLabel;html=1;align=center;verticalAlign=middle;resizable=0;points=[];" vertex="1" connectable="0" parent="zHjCzondexdLDDkKaduJ-118">
          <mxGeometry x="-0.0359" y="1" relative="1" as="geometry">
            <mxPoint as="offset" />
          </mxGeometry>
        </mxCell>
        <mxCell id="zHjCzondexdLDDkKaduJ-120" value="Confirm Post" style="html=1;overflow=block;blockSpacing=1;whiteSpace=wrap;ellipse;fontSize=13;spacing=3.8;strokeOpacity=0;fillOpacity=100;rounded=1;absoluteArcSize=1;arcSize=9;fillColor=#fe7070;strokeWidth=1.5;lucidId=1yIeQ48BPR4-;" vertex="1" parent="1">
          <mxGeometry x="-110" y="390" width="93.34" height="70" as="geometry" />
        </mxCell>
        <mxCell id="zHjCzondexdLDDkKaduJ-121" value="Cancel Post" style="html=1;overflow=block;blockSpacing=1;whiteSpace=wrap;ellipse;fontSize=13;spacing=3.8;strokeOpacity=0;fillOpacity=100;rounded=1;absoluteArcSize=1;arcSize=9;fillColor=#fe7070;strokeWidth=1.5;lucidId=1yIeQ48BPR4-;" vertex="1" parent="1">
          <mxGeometry x="-113.34" y="470" width="93.34" height="70" as="geometry" />
        </mxCell>
        <mxCell id="zHjCzondexdLDDkKaduJ-122" style="rounded=0;orthogonalLoop=1;jettySize=auto;html=1;exitX=0;exitY=0.5;exitDx=0;exitDy=0;dashed=1;" edge="1" parent="1">
          <mxGeometry relative="1" as="geometry">
            <mxPoint x="-110" y="425" as="sourcePoint" />
            <mxPoint x="-206" y="460" as="targetPoint" />
          </mxGeometry>
        </mxCell>
        <mxCell id="zHjCzondexdLDDkKaduJ-123" value="&amp;lt;&amp;lt;Extend&amp;gt;&amp;gt;" style="edgeLabel;html=1;align=center;verticalAlign=middle;resizable=0;points=[];" vertex="1" connectable="0" parent="zHjCzondexdLDDkKaduJ-122">
          <mxGeometry x="-0.0359" y="1" relative="1" as="geometry">
            <mxPoint as="offset" />
          </mxGeometry>
        </mxCell>
        <mxCell id="zHjCzondexdLDDkKaduJ-124" style="rounded=0;orthogonalLoop=1;jettySize=auto;html=1;exitX=0;exitY=0.5;exitDx=0;exitDy=0;dashed=1;entryX=0.973;entryY=0.635;entryDx=0;entryDy=0;entryPerimeter=0;" edge="1" parent="1" source="zHjCzondexdLDDkKaduJ-121" target="zHjCzondexdLDDkKaduJ-113">
          <mxGeometry relative="1" as="geometry">
            <mxPoint x="-100" y="435" as="sourcePoint" />
            <mxPoint x="-196" y="470" as="targetPoint" />
          </mxGeometry>
        </mxCell>
        <mxCell id="zHjCzondexdLDDkKaduJ-125" value="&amp;lt;&amp;lt;Extend&amp;gt;&amp;gt;" style="edgeLabel;html=1;align=center;verticalAlign=middle;resizable=0;points=[];" vertex="1" connectable="0" parent="zHjCzondexdLDDkKaduJ-124">
          <mxGeometry x="-0.0359" y="1" relative="1" as="geometry">
            <mxPoint as="offset" />
          </mxGeometry>
        </mxCell>
        <mxCell id="zHjCzondexdLDDkKaduJ-126" value="" style="group" vertex="1" connectable="0" parent="1">
          <mxGeometry x="-232.5" y="900" width="295" height="92" as="geometry" />
        </mxCell>
        <mxCell id="zHjCzondexdLDDkKaduJ-127" value="" style="html=1;overflow=block;blockSpacing=1;whiteSpace=wrap;fontSize=16.7;fontColor=default;spacing=3.8;strokeOpacity=100;fillOpacity=100;rounded=1;absoluteArcSize=1;arcSize=162;fillColor=#ffffff;strokeWidth=1.5;lucidId=qHtdmG4HjMHo;container=0;collapsible=0;" vertex="1" parent="zHjCzondexdLDDkKaduJ-126">
          <mxGeometry width="295" height="92" as="geometry" />
        </mxCell>
        <mxCell id="zHjCzondexdLDDkKaduJ-128" value="Terminator" style="html=1;overflow=block;blockSpacing=1;whiteSpace=wrap;fontSize=16.7;fontColor=#979ea8;spacing=3.8;strokeColor=#979ea8;strokeOpacity=100;fillOpacity=100;rounded=1;absoluteArcSize=1;arcSize=75;fillColor=#979ea8;strokeWidth=1.5;lucidId=IHtdpJWPwF3h;" vertex="1" parent="zHjCzondexdLDDkKaduJ-126">
          <mxGeometry x="41.25" y="10" width="82" height="40" as="geometry" />
        </mxCell>
        <mxCell id="zHjCzondexdLDDkKaduJ-129" value="" style="html=1;overflow=block;blockSpacing=1;whiteSpace=wrap;fontSize=16.7;fontColor=default;spacing=3.8;strokeColor=#fe7070;strokeOpacity=100;fillOpacity=100;rounded=1;absoluteArcSize=1;arcSize=82;fillColor=#fe7070;strokeWidth=1.5;lucidId=SHtdkWkZQMI-;" vertex="1" parent="zHjCzondexdLDDkKaduJ-126">
          <mxGeometry x="171.75" y="10" width="82" height="41" as="geometry" />
        </mxCell>
        <mxCell id="zHjCzondexdLDDkKaduJ-130" value="Already exist" style="html=1;overflow=block;blockSpacing=1;whiteSpace=wrap;fontSize=16.7;spacing=0;strokeOpacity=100;rounded=1;absoluteArcSize=1;arcSize=9;fillColor=none;strokeWidth=NaN;strokeColor=none;lucidId=mItdmbgDk1Mh;" vertex="1" parent="zHjCzondexdLDDkKaduJ-126">
          <mxGeometry x="20" y="51" width="123" height="31" as="geometry" />
        </mxCell>
        <mxCell id="zHjCzondexdLDDkKaduJ-131" value="developed by us" style="html=1;overflow=block;blockSpacing=1;whiteSpace=wrap;fontSize=16.7;spacing=0;strokeOpacity=100;rounded=1;absoluteArcSize=1;arcSize=9;fillColor=none;strokeWidth=NaN;strokeColor=none;lucidId=SItdEPhbv4RO;" vertex="1" parent="zHjCzondexdLDDkKaduJ-126">
          <mxGeometry x="158.5" y="50" width="123" height="31" as="geometry" />
        </mxCell>
      </root>
    </mxGraphModel>
  </diagram>
</mxfile>
